HIERARCHY
ROOT Hips
{
 OFFSET 0.000000 0.000000 0.000000
 CHANNELS 6 Xposition Yposition Zposition Yrotation Xrotation Zrotation
 JOINT Chest
 {
  OFFSET 0.000000 10.354800 0.006500
  CHANNELS 3 Yrotation Xrotation Zrotation
  JOINT Chest2
  {
   OFFSET 0.000000 10.435800 -0.013200
   CHANNELS 3 Yrotation Xrotation Zrotation
   JOINT Chest3
   {
    OFFSET 0.000000 10.393700 0.000000
    CHANNELS 3 Yrotation Xrotation Zrotation
    JOINT Chest4
    {
     OFFSET 0.000000 10.383100 0.000000
     CHANNELS 3 Yrotation Xrotation Zrotation
     JOINT Neck
     {
      OFFSET 0.000000 15.694000 0.000000
      CHANNELS 3 Yrotation Xrotation Zrotation
      JOINT Head
      {
       OFFSET 0.000000 9.711000 -0.028000
       CHANNELS 3 Yrotation Xrotation Zrotation
       End Site
       {
        OFFSET 0.000000 18.578700 -0.014800
       }
      }
     }
     JOINT RightCollar
     {
      OFFSET -3.157200 10.367500 0.000000
      CHANNELS 3 Yrotation Xrotation Zrotation
      JOINT RightShoulder
      {
       OFFSET -14.482500 0.000000 0.000000
       CHANNELS 3 Yrotation Xrotation Zrotation
       JOINT RightElbow
       {
        OFFSET 0.000000 -31.707800 0.000000
        CHANNELS 3 Yrotation Xrotation Zrotation
        JOINT RightWrist
        {
         OFFSET 0.000000 -25.659300 0.000000
         CHANNELS 3 Yrotation Xrotation Zrotation
         End Site
         {
          OFFSET 0.000000 -18.994300 0.000000
         }
        }
       }
      }
     }
     JOINT LeftCollar
     {
      OFFSET 3.157200 10.367500 0.000000
      CHANNELS 3 Yrotation Xrotation Zrotation
      JOINT LeftShoulder
      {
       OFFSET 14.482500 0.000000 0.000000
       CHANNELS 3 Yrotation Xrotation Zrotation
       JOINT LeftElbow
       {
        OFFSET 0.000000 -31.707800 0.000000
        CHANNELS 3 Yrotation Xrotation Zrotation
        JOINT LeftWrist
        {
         OFFSET 0.000000 -25.659300 0.000000
         CHANNELS 3 Yrotation Xrotation Zrotation
         End Site
         {
          OFFSET 0.000000 -18.994300 0.000000
         }
        }
       }
      }
     }
    }
   }
  }
 }
 JOINT RightHip
 {
  OFFSET -8.365600 -0.032100 -0.003200
  CHANNELS 3 Yrotation Xrotation Zrotation
  JOINT RightKnee
  {
   OFFSET 0.000000 -43.980000 0.003100
   CHANNELS 3 Yrotation Xrotation Zrotation
   JOINT RightAnkle
   {
    OFFSET 0.000000 -42.882800 0.005200
    CHANNELS 3 Yrotation Xrotation Zrotation
    JOINT RightToe
    {
     OFFSET 0.000000 -4.915500 10.826300
     CHANNELS 3 Yrotation Xrotation Zrotation
     End Site
     {
      OFFSET 0.000000 -1.517500 6.175900
     }
    }
   }
  }
 }
 JOINT LeftHip
 {
  OFFSET 8.365600 -0.032100 -0.003200
  CHANNELS 3 Yrotation Xrotation Zrotation
  JOINT LeftKnee
  {
   OFFSET 0.000000 -43.980000 0.003100
   CHANNELS 3 Yrotation Xrotation Zrotation
   JOINT LeftAnkle
   {
    OFFSET 0.000000 -42.882800 0.005200
    CHANNELS 3 Yrotation Xrotation Zrotation
    JOINT LeftToe
    {
     OFFSET 0.000000 -4.915500 10.826300
     CHANNELS 3 Yrotation Xrotation Zrotation
     End Site
     {
      OFFSET 0.000000 -1.517500 6.175900
     }
    }
   }
  }
 }
}
MOTION
Frames: 13
Frame Time: 0.008333
-9.887668 126.171024 26.331787 177.264235 -15.524613 -4.324050 -2.508259 12.833752 3.397783 -0.229157 1.053125 0.308868 -0.402639 1.779765 0.494091 -2.302368 11.589376 3.090215 -0.753270 37.507928 -5.754883 0.358114 18.623562 -6.491248 4.259064 8.878226 -6.950603 31.013355 -36.210667 -20.915565 -169.055240 -51.138669 -166.786660 -12.639580 -16.395564 -28.890739 -2.771998 15.019652 0.520066 0.693724 -13.169601 -4.744263 -86.984928 -53.851424 86.997041 -5.617618 -5.432811 10.805596 9.726908 -62.921887 -10.714199 -140.709916 75.940535 -133.589440 -0.265490 -22.096374 3.503974 -0.000407 -0.001158 -0.000185 -26.938775 -63.056464 24.695422 123.163833 79.590980 119.019558 -0.549299 -15.355413 -3.836418 0.002446 0.001422 0.001111
-9.887955 126.171914 26.332767 177.271064 -15.531881 -4.331366 -2.514773 12.840631 3.399698 -0.240006 1.049457 0.291266 -0.398116 1.783858 0.502045 -2.300201 11.592549 3.093539 -0.752151 37.466845 -5.768024 0.375248 18.559545 -6.496259 4.241896 8.832735 -6.942570 30.903913 -36.194947 -20.820295 -168.847384 -51.120842 -166.905185 -12.685965 -16.313561 -28.650021 -2.768448 15.010236 0.525734 0.711063 -13.169714 -4.793085 -86.978470 -53.827366 87.010372 -5.618244 -5.323695 10.704523 9.714797 -62.912965 -10.709111 -140.716179 75.944614 -133.593718 -0.263808 -22.095646 3.500401 0.000331 -0.001205 0.000151 -26.922046 -63.051872 24.684040 123.135742 79.601449 118.990339 -0.553063 -15.344672 -3.828292 0.001347 0.002043 0.000612
-9.888452 126.172840 26.333639 177.273082 -15.540660 -4.335239 -2.521929 12.847887 3.390419 -0.235301 1.051414 0.299290 -0.400482 1.783735 0.498506 -2.302735 11.596447 3.090852 -0.754782 37.414536 -5.784838 0.393575 18.503069 -6.494714 4.227711 8.786566 -6.935062 30.793177 -36.180726 -20.729686 -168.636747 -51.102308 -167.025645 -12.735148 -16.235464 -28.418717 -2.783759 14.971360 0.518950 0.740405 -13.138665 -4.826568 -86.950875 -53.848786 87.045485 -5.649363 -5.232975 10.566544 9.709974 -62.905617 -10.706848 -140.716266 75.944598 -133.594156 -0.261108 -22.092588 3.500402 0.000386 -0.002531 0.000175 -26.898407 -63.047024 24.670530 123.107699 79.606914 118.961295 -0.561174 -15.329376 -3.827147 0.001153 0.003004 0.000523
-9.887795 126.174369 26.332781 177.266546 -15.560602 -4.341669 -2.526402 12.858020 3.375031 -0.230364 1.057877 0.306016 -0.395932 1.786694 0.504584 -2.306656 11.601597 3.078079 -0.742634 37.381468 -5.776527 0.397178 18.426382 -6.496141 4.228851 8.761165 -6.917666 30.672437 -36.184841 -20.654786 -168.443981 -51.082853 -167.126011 -12.788246 -16.163448 -28.200137 -2.814831 14.892121 0.513131 0.776778 -13.065539 -4.851410 -86.905868 -53.865703 87.070914 -5.681572 -5.165031 10.439460 9.702065 -62.888054 -10.684970 -140.676049 75.941050 -133.559787 -0.258552 -22.083549 3.505771 -0.001372 -0.004104 -0.000623 -26.865782 -63.029815 24.657602 123.106028 79.614568 118.956189 -0.565473 -15.323579 -3.813131 -0.000878 0.001232 -0.000399
-9.887094 126.175656 26.332647 177.269946 -15.575161 -4.350081 -2.529619 12.865246 3.376849 -0.235526 1.063470 0.301530 -0.396603 1.788575 0.504100 -2.318206 11.603145 3.067230 -0.724078 37.337652 -5.766871 0.397091 18.363530 -6.497639 4.241422 8.740397 -6.902004 30.548899 -36.186847 -20.583640 -168.297348 -51.060371 -167.174620 -12.840873 -16.092525 -28.006625 -2.815289 14.856471 0.523612 0.805459 -13.034780 -4.890720 -86.864603 -53.863023 87.077921 -5.704311 -5.120528 10.333512 9.685197 -62.874518 -10.662607 -140.659494 75.936867 -133.542617 -0.264658 -22.076939 3.502933 0.001082 -0.004230 0.000491 -26.846914 -63.016823 24.646343 123.107166 79.620632 118.964829 -0.569582 -15.316368 -3.815507 0.002165 0.001431 0.000983
-9.886791 126.176761 26.332702 177.272365 -15.587276 -4.355027 -2.533584 12.870350 3.375617 -0.232098 1.061223 0.303396 -0.397858 1.789610 0.503856 -2.325183 11.609624 3.064205 -0.733198 37.284546 -5.772872 0.395810 18.313788 -6.499926 4.240676 8.707225 -6.901456 30.419070 -36.171859 -20.501863 -168.091876 -51.024416 -167.295742 -12.827188 -15.981783 -27.805172 -2.826617 14.822867 0.521624 0.859413 -13.006337 -4.966239 -86.868840 -53.809629 87.072758 -5.715917 -5.104417 10.282629 9.677977 -62.861904 -10.653544 -140.655015 75.934781 -133.535558 -0.266039 -22.075253 3.503477 0.002652 -0.004352 0.001204 -26.826793 -63.006304 24.633929 123.088855 79.628062 118.947890 -0.572429 -15.300802 -3.815306 0.002375 0.002766 0.001078
-9.887007 126.177334 26.334004 177.274693 -15.590003 -4.356453 -2.539234 12.869416 3.371752 -0.232784 1.058395 0.302171 -0.404102 1.788282 0.499172 -2.321319 11.617218 3.068249 -0.740629 37.244728 -5.777616 0.401418 18.302632 -6.502649 4.235291 8.675898 -6.900288 30.297145 -36.155748 -20.425637 -167.971906 -50.962138 -167.420066 -12.868715 -15.833055 -27.542891 -2.830069 14.787843 0.518455 0.885297 -12.973064 -4.993416 -86.829649 -53.804537 87.092554 -5.733654 -5.113489 10.193752 9.677836 -62.858784 -10.653024 -140.613956 75.926365 -133.499908 -0.256632 -22.071261 3.510769 0.001101 -0.004015 0.000500 -26.815718 -63.005047 24.627708 123.053024 79.636302 118.911045 -0.573575 -15.287937 -3.809468 0.001996 0.002032 0.000906
-9.886150 126.177948 26.334886 177.272717 -15.593338 -4.361646 -2.537139 12.871843 3.375943 -0.236976 1.055672 0.298607 -0.401628 1.790107 0.499819 -2.321548 11.618826 3.069636 -0.751349 37.206305 -5.782304 0.403883 18.289925 -6.506600 4.230011 8.646305 -6.899665 30.161938 -36.138916 -20.348345 -167.902735 -50.912809 -167.469218 -12.934612 -15.710120 -27.303241 -2.835827 14.750607 0.512848 0.908289 -12.939593 -5.014220 -86.791077 -53.791045 87.123514 -5.745931 -5.115944 10.079153 9.668765 -62.856386 -10.640177 -140.582436 75.924090 -133.467418 -0.251473 -22.066769 3.504860 0.002067 -0.004463 0.000939 -26.817071 -63.002516 24.635920 123.063907 79.639474 118.924460 -0.573999 -15.273503 -3.812096 0.002579 0.002006 0.001171
-9.885452 126.178429 26.335586 177.269351 -15.595009 -4.364607 -2.537515 12.871153 3.373671 -0.234894 1.055350 0.297790 -0.398147 1.793057 0.502806 -2.324891 11.618066 3.069322 -0.753313 37.188334 -5.781491 0.387376 18.216317 -6.504838 4.224820 8.618647 -6.900224 30.002086 -36.119710 -20.261005 -167.830791 -50.860299 -167.519852 -13.014638 -15.592260 -27.038690 -2.840407 14.712285 0.507332 0.930924 -12.906390 -5.028611 -86.768028 -53.769412 87.159678 -5.794018 -5.094647 9.951451 9.664004 -62.854642 -10.630440 -140.553801 75.921829 -133.437622 -0.248493 -22.067890 3.501689 0.003746 -0.004631 0.001701 -26.819070 -63.000975 24.644232 123.068690 79.644133 118.925574 -0.570528 -15.261493 -3.808505 0.000115 0.001280 0.000052
-9.885290 126.178832 26.335800 177.270368 -15.596343 -4.364684 -2.535652 12.871637 3.373107 -0.236933 1.055909 0.298459 -0.397017 1.794821 0.500768 -2.321453 11.616840 3.069709 -0.761073 37.169172 -5.778780 0.350858 18.069295 -6.483686 4.216422 8.588662 -6.897561 29.805444 -36.089976 -20.160084 -167.737360 -50.799890 -167.581907 -13.095731 -15.478049 -26.741168 -2.847664 14.671634 0.500230 0.947544 -12.871729 -5.033089 -86.746436 -53.742805 87.208738 -5.840820 -5.085414 9.833087 9.661086 -62.850377 -10.632050 -140.549710 75.924592 -133.433240 -0.251280 -22.074600 3.509984 0.003211 -0.004736 0.001458 -26.819481 -63.001488 24.643526 123.083158 79.649475 118.940599 -0.563651 -15.251296 -3.808901 -0.000072 -0.000256 -0.000033
-9.884557 126.178896 26.336932 177.261026 -15.591158 -4.364476 -2.522326 12.871840 3.368129 -0.239133 1.053333 0.303306 -0.394022 1.793257 0.498721 -2.306587 11.619313 3.061106 -0.772280 37.129273 -5.756571 0.334138 17.981580 -6.464275 4.204123 8.561986 -6.875881 29.562889 -36.056687 -20.045746 -167.621910 -50.728900 -167.652812 -13.170765 -15.362579 -26.406849 -2.860265 14.647176 0.513523 0.952675 -12.853534 -5.031829 -86.718701 -53.715895 87.275643 -5.843929 -5.098665 9.723616 9.663473 -62.855376 -10.628595 -140.532132 75.925313 -133.416983 -0.246793 -22.075527 3.511410 0.002659 -0.003652 0.001207 -26.819564 -63.006788 24.655119 123.113376 79.655972 118.968588 -0.555670 -15.246531 -3.805323 -0.001766 -0.001742 -0.000802
-9.883624 126.179167 26.336905 177.254803 -15.590633 -4.365113 -2.513980 12.871911 3.368219 -0.231360 1.055877 0.293722 -0.395015 1.791360 0.502086 -2.298861 11.619563 3.059136 -0.784462 37.047616 -5.742785 0.334241 17.955729 -6.445657 4.231477 8.537731 -6.855696 29.229767 -36.007516 -19.901621 -167.491397 -50.648983 -167.726529 -13.249286 -15.263412 -26.027281 -2.864757 14.589662 0.507034 0.965927 -12.808238 -5.024606 -86.689234 -53.677331 87.343756 -5.912566 -5.089128 9.556223 9.656150 -62.855072 -10.621249 -140.500169 75.925879 -133.387373 -0.236785 -22.072954 3.510839 0.002099 -0.003248 0.000953 -26.814277 -63.003024 24.662156 123.138907 79.664514 118.991471 -0.552628 -15.246604 -3.801702 -0.001006 -0.000586 -0.000457
-9.882558 126.179446 26.336379 177.249026 -15.591284 -4.365879 -2.505484 12.872906 3.367911 -0.226354 1.056422 0.288088 -0.393255 1.791378 0.501192 -2.288035 11.621314 3.054840 -0.786108 37.012936 -5.721847 0.330008 17.872329 -6.425673 4.222146 8.530667 -6.836666 28.880700 -35.952884 -19.749813 -167.375080 -50.553568 -167.792804 -13.356758 -15.206659 -25.588583 -2.866468 14.522543 0.499915 1.020879 -12.756053 -5.042835 -86.691106 -53.616069 87.428039 -5.995815 -5.093014 9.349744 9.656506 -62.854377 -10.617390 -140.493835 75.927212 -133.380670 -0.237164 -22.072054 3.513669 0.002778 -0.003734 0.001261 -26.813025 -62.996852 24.670103 123.168986 79.678289 119.018010 -0.542187 -15.244254 -3.799903 -0.000428 0.000593 -0.000194
